<mxfile host="65bd71144e">
    <diagram id="LHpSWDsasucJAMfmUCpd" name="Page-1">
        <mxGraphModel dx="1680" dy="478" grid="1" gridSize="10" guides="1" tooltips="1" connect="1" arrows="1" fold="1" page="1" pageScale="1" pageWidth="850" pageHeight="1100" math="0" shadow="0">
            <root>
                <mxCell id="0"/>
                <mxCell id="1" parent="0"/>
                <mxCell id="2" value="Разбор на термы" style="rounded=0;whiteSpace=wrap;html=1;" vertex="1" parent="1">
                    <mxGeometry x="40" y="200" width="120" height="60" as="geometry"/>
                </mxCell>
                <mxCell id="3" value="Определение принадлежности каждого терма к одному из таксонов" style="rounded=0;whiteSpace=wrap;html=1;" vertex="1" parent="1">
                    <mxGeometry x="240" y="290" width="160" height="100" as="geometry"/>
                </mxCell>
                <mxCell id="4" value="Формирование вектора, характеризующего данное сообщение" style="rounded=0;whiteSpace=wrap;html=1;" vertex="1" parent="1">
                    <mxGeometry x="450" y="370" width="150" height="90" as="geometry"/>
                </mxCell>
                <mxCell id="5" value="" style="endArrow=classic;html=1;entryX=0;entryY=0.5;entryDx=0;entryDy=0;" edge="1" parent="1" target="2">
                    <mxGeometry width="50" height="50" relative="1" as="geometry">
                        <mxPoint x="-50" y="230" as="sourcePoint"/>
                        <mxPoint x="40" y="220" as="targetPoint"/>
                    </mxGeometry>
                </mxCell>
                <mxCell id="6" value="Текст сообщения электронной почты&lt;br&gt;" style="text;html=1;strokeColor=none;fillColor=none;align=center;verticalAlign=middle;whiteSpace=wrap;rounded=0;" vertex="1" parent="1">
                    <mxGeometry x="-70" y="190" width="110" height="30" as="geometry"/>
                </mxCell>
                <mxCell id="7" value="Обработка нейросетью" style="rounded=0;whiteSpace=wrap;html=1;" vertex="1" parent="1">
                    <mxGeometry x="640" y="480" width="140" height="70" as="geometry"/>
                </mxCell>
                <mxCell id="8" value="Интерпретация выходного сигнала нейросети" style="rounded=0;whiteSpace=wrap;html=1;" vertex="1" parent="1">
                    <mxGeometry x="820" y="550" width="140" height="90" as="geometry"/>
                </mxCell>
                <mxCell id="9" value="" style="endArrow=classic;html=1;" edge="1" parent="1">
                    <mxGeometry width="50" height="50" relative="1" as="geometry">
                        <mxPoint x="960" y="600" as="sourcePoint"/>
                        <mxPoint x="1110" y="600" as="targetPoint"/>
                    </mxGeometry>
                </mxCell>
                <mxCell id="10" value="Класс сообщения (спам, не спам, невозможно определить)&lt;br&gt;" style="text;html=1;strokeColor=none;fillColor=none;align=center;verticalAlign=middle;whiteSpace=wrap;rounded=0;" vertex="1" parent="1">
                    <mxGeometry x="960" y="560" width="140" height="30" as="geometry"/>
                </mxCell>
                <mxCell id="11" value="" style="endArrow=classic;html=1;exitX=1;exitY=0.5;exitDx=0;exitDy=0;" edge="1" parent="1" source="2">
                    <mxGeometry width="50" height="50" relative="1" as="geometry">
                        <mxPoint x="270" y="230" as="sourcePoint"/>
                        <mxPoint x="240" y="340" as="targetPoint"/>
                        <Array as="points">
                            <mxPoint x="200" y="230"/>
                            <mxPoint x="200" y="340"/>
                        </Array>
                    </mxGeometry>
                </mxCell>
                <mxCell id="13" value="" style="endArrow=classic;html=1;exitX=1;exitY=0.5;exitDx=0;exitDy=0;" edge="1" parent="1" source="3">
                    <mxGeometry width="50" height="50" relative="1" as="geometry">
                        <mxPoint x="480" y="430" as="sourcePoint"/>
                        <mxPoint x="450" y="400" as="targetPoint"/>
                        <Array as="points">
                            <mxPoint x="430" y="340"/>
                            <mxPoint x="430" y="400"/>
                        </Array>
                    </mxGeometry>
                </mxCell>
                <mxCell id="15" value="" style="endArrow=classic;html=1;exitX=1;exitY=0.5;exitDx=0;exitDy=0;entryX=0;entryY=0.5;entryDx=0;entryDy=0;" edge="1" parent="1" source="4" target="7">
                    <mxGeometry width="50" height="50" relative="1" as="geometry">
                        <mxPoint x="600" y="420" as="sourcePoint"/>
                        <mxPoint x="650" y="370" as="targetPoint"/>
                        <Array as="points">
                            <mxPoint x="620" y="415"/>
                            <mxPoint x="620" y="515"/>
                        </Array>
                    </mxGeometry>
                </mxCell>
                <mxCell id="16" value="" style="endArrow=classic;html=1;" edge="1" parent="1">
                    <mxGeometry width="50" height="50" relative="1" as="geometry">
                        <mxPoint x="780" y="520" as="sourcePoint"/>
                        <mxPoint x="820" y="600" as="targetPoint"/>
                        <Array as="points">
                            <mxPoint x="800" y="520"/>
                            <mxPoint x="800" y="600"/>
                        </Array>
                    </mxGeometry>
                </mxCell>
                <mxCell id="17" value="Массив термов" style="text;html=1;strokeColor=none;fillColor=none;align=center;verticalAlign=middle;whiteSpace=wrap;rounded=0;" vertex="1" parent="1">
                    <mxGeometry x="160" y="200" width="60" height="30" as="geometry"/>
                </mxCell>
                <mxCell id="18" value="Полученный вектор" style="text;html=1;strokeColor=none;fillColor=none;align=center;verticalAlign=middle;whiteSpace=wrap;rounded=0;" vertex="1" parent="1">
                    <mxGeometry x="610" y="380" width="60" height="30" as="geometry"/>
                </mxCell>
                <mxCell id="19" value="Выходной сигнал нейросети" style="text;html=1;strokeColor=none;fillColor=none;align=center;verticalAlign=middle;whiteSpace=wrap;rounded=0;" vertex="1" parent="1">
                    <mxGeometry x="780" y="480" width="60" height="30" as="geometry"/>
                </mxCell>
                <mxCell id="20" value="" style="endArrow=classic;html=1;entryX=0.5;entryY=1;entryDx=0;entryDy=0;" edge="1" parent="1" target="7">
                    <mxGeometry width="50" height="50" relative="1" as="geometry">
                        <mxPoint x="710" y="650" as="sourcePoint"/>
                        <mxPoint x="690" y="590" as="targetPoint"/>
                    </mxGeometry>
                </mxCell>
                <mxCell id="21" value="Модель нейронной сети" style="text;html=1;strokeColor=none;fillColor=none;align=center;verticalAlign=middle;whiteSpace=wrap;rounded=0;" vertex="1" parent="1">
                    <mxGeometry x="710" y="580" width="60" height="30" as="geometry"/>
                </mxCell>
                <mxCell id="23" value="А1" style="text;html=1;strokeColor=none;fillColor=none;align=center;verticalAlign=middle;whiteSpace=wrap;rounded=0;" vertex="1" parent="1">
                    <mxGeometry x="110" y="230" width="60" height="30" as="geometry"/>
                </mxCell>
                <mxCell id="24" value="А2" style="text;html=1;strokeColor=none;fillColor=none;align=center;verticalAlign=middle;whiteSpace=wrap;rounded=0;" vertex="1" parent="1">
                    <mxGeometry x="360" y="360" width="60" height="30" as="geometry"/>
                </mxCell>
                <mxCell id="25" value="А3" style="text;html=1;strokeColor=none;fillColor=none;align=center;verticalAlign=middle;whiteSpace=wrap;rounded=0;" vertex="1" parent="1">
                    <mxGeometry x="550" y="430" width="60" height="30" as="geometry"/>
                </mxCell>
                <mxCell id="26" value="А4" style="text;html=1;strokeColor=none;fillColor=none;align=center;verticalAlign=middle;whiteSpace=wrap;rounded=0;" vertex="1" parent="1">
                    <mxGeometry x="720" y="520" width="60" height="30" as="geometry"/>
                </mxCell>
                <mxCell id="27" value="А5" style="text;html=1;strokeColor=none;fillColor=none;align=center;verticalAlign=middle;whiteSpace=wrap;rounded=0;" vertex="1" parent="1">
                    <mxGeometry x="890" y="610" width="60" height="30" as="geometry"/>
                </mxCell>
                <mxCell id="28" value="" style="endArrow=classic;html=1;entryX=0.5;entryY=1;entryDx=0;entryDy=0;" edge="1" parent="1" target="4">
                    <mxGeometry width="50" height="50" relative="1" as="geometry">
                        <mxPoint x="525" y="570" as="sourcePoint"/>
                        <mxPoint x="540" y="530" as="targetPoint"/>
                    </mxGeometry>
                </mxCell>
                <mxCell id="29" value="Машина опорных векторов" style="text;html=1;strokeColor=none;fillColor=none;align=center;verticalAlign=middle;whiteSpace=wrap;rounded=0;" vertex="1" parent="1">
                    <mxGeometry x="530" y="500" width="60" height="30" as="geometry"/>
                </mxCell>
            </root>
        </mxGraphModel>
    </diagram>
</mxfile>